# xmcd
# Track frame offsets:
# 150
# 12735
# 24917
# 48515
# 63392
# 77137
# 92082
# 104357
# 119980
# 135150
# 147177
# 161235
# 177425
# 193582
#
# Disc length: 2817 seconds
# Revision: 0
# Processed by: cddbd v1.4PL0 Copyright (c) Steve Scherf et al.
# Submitted via: VisiTrax 2.9.5.180 - For more info visit www.synapsa.com
#
DISCID=c50aff0e
DTITLE=Tomboola Band - don't blame it on Texas
DYEAR=1900
DGENRE=
TTITLE0=Country girl
TTITLE1=Blame it on Texas
TTITLE2=Always on my mind
TTITLE3=Home to the valley
TTITLE4=Baby's got'n good at goodbye
TTITLE5=The closer you get
TTITLE6=I love you because
TTITLE7=Ace in the hole
TTITLE8=Past times
TTITLE9=If heaven ain't a lot like Dixie
TTITLE10=Nothing news
TTITLE11=Cajun blues
TTITLE12=Here in the real world
TTITLE13=Will the circle be unbroken
EXTD=
EXTT0=
EXTT1=
EXTT2=
EXTT3=
EXTT4=
EXTT5=
EXTT6=
EXTT7=
EXTT8=
EXTT9=
EXTT10=
EXTT11=
EXTT12=
EXTT13=
PLAYORDER=
